# xmcd
#
# Track frame offsets: 
#        150
#        14311
#        28543
#        41872
#        57449
#        71024
#        85218
#        97805
#        109996
#        122717
#        136601
#        150271
#        164685
#        177219
#        189823
#        204239
#        216339
#        231348
#
# Disc length: 3264 seconds
#
# Revision: 0
# Processed by: cddbd v1.5.1PL0 Copyright (c) Steve Scherf et al.
# Submitted via: ExactAudioCopy v0.95a5
#
DISCID=ee0cbe12
DTITLE=Various Artist - Classic Blues - Volume 10
DYEAR=2000
DGENRE=Blues
TTITLE0=Mildred Bailey - Gulf Coast Blues 
TTITLE1=Tom Dickson - Death Bell Blues
TTITLE2=Charlie Patton - 34 Blues
TTITLE3=Ida Cox - Four Day Creep
TTITLE4=Memphis Minnie - Where Is My Good Man At
TTITLE5=Blind Boy Fuller - Homesick And Lonesome Blues
TTITLE6=Victoria Spivey - Black Gal
TTITLE7=Sophie Thornton -  Red Hot Mama 
TTITLE8=Jimmy Witherspoon - Skidrow Blues
TTITLE9=Blind Boy Fuller - Evil Hearted Woman
TTITLE10=Arthur 'Big Boy' Crudup - I'm In The Mood
TTITLE11=Mildred Bailey - Lover Come Back To Me
TTITLE12=Lonnie Johnson - Mr. Johnsons Swing
TTITLE13=Brownie Mc Gee and Washboard Sam - Key To My Door
TTITLE14=Mildred Bailey - A Ghost Of A Chance
TTITLE15=Mercy Dee - Lonesome Cabin Blues
TTITLE16=Lottie Kimbrough - Rolling Log Blues
TTITLE17=Big Joe Turner - Going To Chicago Blues
EXTD=
EXTT0=
EXTT1=
EXTT2=
EXTT3=
EXTT4=
EXTT5=
EXTT6=
EXTT7=
EXTT8=
EXTT9=
EXTT10=
EXTT11=
EXTT12=
EXTT13=
EXTT14=
EXTT15=
EXTT16=
EXTT17=
PLAYORDER=
